# xmcd
#
# Track frame offsets:
# 150
# 19852
# 56137
# 84552
# 99570
# 117895
# 139150
#
# Disc length: 2715 seconds
#
#
# Revision: 5
# Processed by: cddbd v1.5.2PL0 Copyright (c) Steve Scherf et al.
# Submitted via: FreeRIP 2.943 
#
DISCID=5a0a9907
DTITLE=Grusin, Dave and the NY-LA DreamBand - Digital Master - Dave Grusin and the NY-LA Dearm Band
DYEAR=1984
DGENRE=Jazz
TTITLE0=Shuffle City
TTITLE1=Count Down
TTITLE2=Serengetti walk
TTITLE3=Theme From "The Champ" What Matters Most
TTITLE4=Number 8
TTITLE5=Three Days of the Condor
TTITLE6=Summer Sketches '82
EXTD=
EXTT0=
EXTT1=
EXTT2=
EXTT3=
EXTT4=
EXTT5=
EXTT6=
PLAYORDER=
